<?xml version="1.0" encoding="UTF-8" standalone="no"?>
<!-- Generator: Adobe Illustrator 14.0.0, SVG Export Plug-In . SVG Version: 6.00 Build 43363)  -->
<svg xmlns:dc="http://purl.org/dc/elements/1.1/" xmlns:cc="http://creativecommons.org/ns#" xmlns:rdf="http://www.w3.org/1999/02/22-rdf-syntax-ns#" xmlns:svg="http://www.w3.org/2000/svg" xmlns="http://www.w3.org/2000/svg" xmlns:sodipodi="http://sodipodi.sourceforge.net/DTD/sodipodi-0.dtd" xmlns:inkscape="http://www.inkscape.org/namespaces/inkscape" version="1.1" id="Ebene_1" x="0px" y="0px" width="226.77px" height="113.39px" viewBox="0 0 226.77 113.39" enable-background="new 0 0 226.77 113.39" xml:space="preserve" inkscape:version="0.91 r13725" sodipodi:docname="RaumZeitLabor_-_Logo_-_Schwarz.svg" inkscape:export-filename="C:\Users\Inte\Documents\My Dropbox\RaumZeitLabor\Grafiken\RaumZeitLabor - Logo - Weiß.png" inkscape:export-xdpi="635" inkscape:export-ydpi="635"><metadata id="metadata10"><rdf:RDF><cc:Work rdf:about=""><dc:format>image/svg+xml</dc:format><dc:type rdf:resource="http://purl.org/dc/dcmitype/StillImage"/><dc:title/></cc:Work></rdf:RDF></metadata><defs id="defs8"/><sodipodi:namedview pagecolor="#ffffff" bordercolor="#666666" borderopacity="1" objecttolerance="10" gridtolerance="10" guidetolerance="10" inkscape:pageopacity="0" inkscape:pageshadow="2" inkscape:window-width="1280" inkscape:window-height="738" id="namedview6" showgrid="false" inkscape:zoom="1.7461736" inkscape:cx="48.773732" inkscape:cy="3.7105217" inkscape:window-x="-8" inkscape:window-y="-8" inkscape:window-maximized="1" inkscape:current-layer="Ebene_1"/><g style="font-size:24.52983093px;font-style:normal;font-weight:normal;line-height:125%;letter-spacing:0px;word-spacing:0px;fill:#000000;fill-opacity:1;stroke:none;font-family:Sans" id="text2987"><path d="m 139.61448,75.809034 0,-1.098922 c -0.0233,-0.935791 -0.34465,-1.713376 -0.96401,-2.332757 -0.61938,-0.619358 -1.39696,-0.940694 -2.33276,-0.96401 l -2.35483,0 c -0.27105,0.0061 -0.49427,0.0969 -0.66966,0.272278 -0.17538,0.175398 -0.26614,0.398616 -0.27227,0.669655 l 0,11.3032 c 0.006,0.271051 0.0969,0.49427 0.27227,0.669656 0.17539,0.175385 0.39861,0.266144 0.66966,0.272277 0.27105,-0.0061 0.49427,-0.09689 0.66966,-0.272277 0.17538,-0.175386 0.26614,-0.398605 0.27227,-0.669656 l 0,-4.552678 1.05968,0 1.82499,4.886279 c 0.11447,0.248566 0.28291,0.423543 0.50531,0.524932 0.2224,0.101388 0.45951,0.109565 0.71136,0.02453 0.25101,-0.0973 0.43089,-0.260831 0.53965,-0.490591 0.10874,-0.229759 0.11201,-0.471783 0.01,-0.726073 l -1.70726,-4.591925 c 0.54578,-0.282493 0.97505,-0.679053 1.2878,-1.189682 0.31275,-0.510615 0.47219,-1.088693 0.47833,-1.734236 z m -4.70967,1.4129 0,-3.924722 1.4129,0 c 0.40228,0.0098 0.73588,0.147188 1.00081,0.412095 0.26491,0.264929 0.40228,0.59853 0.41209,1.000805 l 0,1.098922 c -0.01,0.402292 -0.14718,0.735893 -0.41209,1.000804 -0.26493,0.264926 -0.59853,0.402291 -1.00081,0.412096 z" style="font-size:19.62386322px;font-variant:normal;font-weight:bold;font-stretch:normal;font-family:Miso;-inkscape-font-specification:Miso Bold" id="path2991"/><path d="m 144.38343,78.772199 -1.0793,0 c -0.80539,0.02045 -1.47586,0.298447 -2.01142,0.834003 -0.53556,0.535565 -0.81356,1.206038 -0.834,2.011421 0.0204,0.805387 0.29844,1.47586 0.834,2.011419 0.53556,0.535561 1.20603,0.813562 2.01142,0.834004 l 1.96236,0 c 0.25142,-0.0061 0.45992,-0.09199 0.6255,-0.25756 0.16557,-0.165574 0.25143,-0.374075 0.25756,-0.625502 l 0,-5.847836 c -0.005,-0.586249 -0.16149,-1.106274 -0.46851,-1.560078 -0.30703,-0.453787 -0.73303,-0.7972 -1.27799,-1.030239 -0.53147,-0.222392 -1.06785,-0.277992 -1.60913,-0.166801 -0.54129,0.11121 -1.0188,0.369587 -1.43253,0.775133 -0.17988,0.179891 -0.27146,0.389209 -0.27473,0.627956 0.003,0.238761 0.0949,0.44808 0.27473,0.627955 0.17334,0.173349 0.37612,0.258384 0.60833,0.255107 0.12674,4.16e-4 0.24121,-0.02003 0.34342,-0.06132 0.1022,-0.04128 0.19705,-0.105879 0.28454,-0.193783 0.15167,-0.156981 0.3291,-0.255099 0.53229,-0.294354 0.20318,-0.03924 0.40514,-0.01962 0.60588,0.05887 0.19869,0.083 0.35567,0.21137 0.47097,0.385114 0.11528,0.173757 0.17415,0.365905 0.17661,0.576443 z m -1.0793,1.766125 1.0793,0 0,2.158597 -1.0793,0 c -0.31112,-0.0069 -0.56704,-0.11079 -0.76777,-0.311525 -0.20074,-0.200731 -0.30458,-0.456655 -0.31153,-0.767773 0.007,-0.311114 0.11079,-0.567038 0.31153,-0.767774 0.20073,-0.20073 0.45665,-0.304572 0.76777,-0.311525 z" style="font-size:19.62386322px;font-variant:normal;font-weight:bold;font-stretch:normal;font-family:Miso;-inkscape-font-specification:Miso Bold" id="path2993"/><path d="m 150.8311,84.463046 1.96236,0 c 0.25142,-0.0061 0.45992,-0.09199 0.6255,-0.25756 0.16557,-0.165574 0.25142,-0.374075 0.25756,-0.625502 l 0,-7.77095 c -0.006,-0.251419 -0.092,-0.45992 -0.25756,-0.625503 -0.16558,-0.165565 -0.37408,-0.251418 -0.6255,-0.25756 -0.25143,0.0061 -0.45993,0.09199 -0.6255,0.25756 -0.16558,0.165583 -0.25143,0.374084 -0.25756,0.625503 l 0,6.887887 -1.0793,0 c -0.31112,-0.0069 -0.56704,-0.11079 -0.76777,-0.311525 -0.20074,-0.200731 -0.30458,-0.456655 -0.31153,-0.767773 l 0,-5.808589 c -0.006,-0.251419 -0.092,-0.45992 -0.25756,-0.625503 -0.16558,-0.165565 -0.37408,-0.251418 -0.6255,-0.25756 -0.25143,0.0061 -0.45993,0.09199 -0.6255,0.25756 -0.16558,0.165583 -0.25143,0.374084 -0.25756,0.625503 l 0,5.808589 c 0.0204,0.805387 0.29844,1.47586 0.834,2.011419 0.53556,0.535561 1.20603,0.813562 2.01142,0.834004 z" style="font-size:19.62386322px;font-variant:normal;font-weight:bold;font-stretch:normal;font-family:Miso;-inkscape-font-specification:Miso Bold" id="path2995"/><path d="m 157.61269,76.770591 2.1586,0 0,6.887887 c 0.006,0.251428 0.092,0.459928 0.25756,0.625502 0.16556,0.165574 0.37407,0.251428 0.6255,0.257561 0.24283,-0.0061 0.44888,-0.09199 0.61814,-0.257561 0.16925,-0.165574 0.25756,-0.374075 0.26492,-0.625502 l 0,-6.887887 1.0793,0 c 0.31111,0.007 0.56703,0.110799 0.76777,0.311525 0.20073,0.20074 0.30457,0.456664 0.31153,0.767773 l 0,5.808589 c 0.006,0.251428 0.092,0.459928 0.25756,0.625502 0.16556,0.165574 0.37406,0.251428 0.6255,0.257561 0.24283,-0.0061 0.44888,-0.09199 0.61814,-0.257561 0.16925,-0.165574 0.25755,-0.374075 0.26492,-0.625502 l 0,-5.808589 c -0.0217,-0.805378 -0.30213,-1.475851 -0.84136,-2.01142 -0.53925,-0.535552 -1.20727,-0.813553 -2.00406,-0.834003 l -5.88708,0 c -0.25143,0.0061 -0.45993,0.092 -0.62551,0.25756 -0.16557,0.165583 -0.25142,0.374083 -0.25756,0.625502 l 0,7.77095 c 0.006,0.251428 0.092,0.459928 0.25756,0.625502 0.16558,0.165574 0.37408,0.251428 0.62551,0.257561 0.24284,-0.0061 0.44888,-0.09199 0.61814,-0.257561 0.16925,-0.165574 0.25756,-0.374075 0.26492,-0.625502 z" style="font-size:19.62386322px;font-variant:normal;font-weight:bold;font-stretch:normal;font-family:Miso;-inkscape-font-specification:Miso Bold" id="path2997"/><path d="m 166.85157,72.355278 c 0.006,0.271063 0.0969,0.494281 0.27228,0.669656 0.17539,0.175397 0.39861,0.266156 0.66966,0.272278 l 3.29676,0 c -0.22199,0.555194 -0.55805,1.363032 -1.00816,2.423515 -0.45012,1.0605 -0.91863,2.162692 -1.40554,3.306579 -0.55273,1.295162 -1.1349,2.688437 -1.7465,4.179829 -0.029,0.04988 -0.0495,0.107113 -0.0613,0.171707 -0.0119,0.06459 -0.0176,0.131642 -0.0172,0.201142 0.003,0.176613 0.0556,0.353225 0.15699,0.529837 0.19297,0.27473 0.45462,0.412096 0.78495,0.412096 l 4.70966,0 c 0.27105,-0.0061 0.49427,-0.09689 0.66966,-0.272278 0.17538,-0.175385 0.26614,-0.398604 0.27228,-0.669655 -0.006,-0.271051 -0.0969,-0.494269 -0.27228,-0.669656 -0.17539,-0.175385 -0.39861,-0.266144 -0.66966,-0.272278 l -3.29676,0 c 0.22975,-0.547005 0.56499,-1.351573 1.00571,-2.413704 0.44071,-1.062123 0.9035,-2.161044 1.38837,-3.296766 0.52983,-1.291879 1.11854,-2.691695 1.76612,-4.199453 0.029,-0.04986 0.0495,-0.107101 0.0613,-0.171707 0.0118,-0.06458 0.0176,-0.131629 0.0172,-0.201142 -0.003,-0.1766 -0.0556,-0.353212 -0.15699,-0.529837 -0.19297,-0.274718 -0.45462,-0.412083 -0.78495,-0.412096 l -4.70966,0 c -0.27105,0.0061 -0.49427,0.0969 -0.66966,0.272278 -0.17538,0.175398 -0.26614,0.398616 -0.27228,0.669655 z" style="font-size:19.62386322px;font-variant:normal;font-weight:bold;font-stretch:normal;font-family:Miso;-inkscape-font-specification:Miso Bold" id="path2999"/><path d="m 176.54113,84.325681 c 0.54864,0.2224 1.09483,0.278 1.63858,0.1668 0.54373,-0.111201 1.03105,-0.369578 1.46195,-0.775132 0.17334,-0.179883 0.25838,-0.389201 0.25511,-0.627956 0.003,-0.238752 -0.0818,-0.44807 -0.25511,-0.627955 -0.17661,-0.179882 -0.39247,-0.271458 -0.64757,-0.274731 -0.23222,0.0033 -0.435,0.09485 -0.60834,0.274731 -0.16067,0.15699 -0.34464,0.255108 -0.55191,0.294354 -0.20728,0.03925 -0.41578,0.01963 -0.6255,-0.05887 -0.2081,-0.09076 -0.37081,-0.223217 -0.48814,-0.397378 -0.11734,-0.174158 -0.17702,-0.3753 -0.17907,-0.603426 l 0,-1.079299 3.04166,0 c 0.25143,-0.0061 0.45993,-0.09198 0.62551,-0.25756 0.16556,-0.16557 0.25142,-0.374071 0.25756,-0.625502 l 0,-1.962361 c -0.0204,-0.805379 -0.29845,-1.475851 -0.83401,-2.01142 -0.53556,-0.535553 -1.20604,-0.813554 -2.01142,-0.834004 -0.80539,0.02045 -1.47586,0.298452 -2.01142,0.834004 -0.53556,0.535568 -0.81356,1.206041 -0.834,2.01142 l 0,3.924722 c 0.005,0.596478 0.16189,1.125497 0.47097,1.58706 0.30907,0.461564 0.74079,0.809065 1.29515,1.042504 z m 1.0793,-7.633585 c 0.31112,0.007 0.56704,0.1108 0.76778,0.311525 0.20073,0.20074 0.30457,0.456665 0.31152,0.767774 l 0,1.079298 -2.1586,0 0,-1.079298 c 0.007,-0.311109 0.11079,-0.567034 0.31153,-0.767774 0.20073,-0.200726 0.45665,-0.304567 0.76777,-0.311525 z" style="font-size:19.62386322px;font-variant:normal;font-weight:bold;font-stretch:normal;font-family:Miso;-inkscape-font-specification:Miso Bold" id="path3001"/><path d="m 183.09919,73.944791 c 0.31112,-0.0069 0.56704,-0.110781 0.76778,-0.311525 0.20073,-0.200722 0.30457,-0.456647 0.31152,-0.767774 -0.007,-0.311104 -0.11079,-0.567028 -0.31152,-0.767774 -0.20074,-0.200721 -0.45666,-0.304562 -0.76778,-0.311524 -0.31111,0.007 -0.56704,0.110804 -0.76777,0.311525 -0.20073,0.200745 -0.30458,0.456669 -0.31152,0.767773 0.007,0.311127 0.11079,0.567052 0.31152,0.767774 0.20073,0.200743 0.45666,0.304585 0.76777,0.311525 z m 0.88307,9.713687 0,-7.849444 c -0.006,-0.251419 -0.092,-0.45992 -0.25756,-0.625503 -0.16558,-0.165565 -0.37408,-0.251418 -0.62551,-0.25756 -0.25142,0.0061 -0.45993,0.09199 -0.6255,0.25756 -0.16557,0.165583 -0.25143,0.374084 -0.25756,0.625503 l 0,7.849444 c 0.006,0.251428 0.092,0.459928 0.25756,0.625502 0.16557,0.165574 0.37408,0.251428 0.6255,0.257561 0.25143,-0.0061 0.45993,-0.09199 0.62551,-0.257561 0.16557,-0.165574 0.25142,-0.374075 0.25756,-0.625502 z" style="font-size:19.62386322px;font-variant:normal;font-weight:bold;font-stretch:normal;font-family:Miso;-inkscape-font-specification:Miso Bold" id="path3003"/><path d="m 186.1452,76.770591 0.68682,0 0,4.925526 c 0.0204,0.805387 0.29844,1.47586 0.83401,2.01142 0.53556,0.535561 1.20603,0.813562 2.01142,0.834004 0.25142,-0.0061 0.45992,-0.09199 0.6255,-0.257561 0.16557,-0.165574 0.25142,-0.374075 0.25756,-0.625502 -0.006,-0.251427 -0.092,-0.459927 -0.25756,-0.625503 -0.16558,-0.165573 -0.37408,-0.251426 -0.6255,-0.257559 -0.31112,-0.0069 -0.56705,-0.11079 -0.76778,-0.311525 -0.20073,-0.200731 -0.30457,-0.456656 -0.31152,-0.767774 l 0,-4.925526 1.0793,0 c 0.25142,-0.0061 0.45992,-0.09198 0.6255,-0.257561 0.16557,-0.165566 0.25142,-0.374067 0.25756,-0.625502 -0.006,-0.251419 -0.092,-0.459919 -0.25756,-0.625502 -0.16558,-0.165566 -0.37408,-0.251419 -0.6255,-0.25756 l -1.0793,0 0,-3.120154 c -0.006,-0.251415 -0.092,-0.459916 -0.25756,-0.625503 -0.16558,-0.165561 -0.37408,-0.251414 -0.6255,-0.25756 -0.25143,0.0061 -0.45993,0.092 -0.62551,0.25756 -0.16557,0.165587 -0.25142,0.374088 -0.25756,0.625503 l 0,3.120154 -0.68682,0 c -0.25143,0.0061 -0.45993,0.092 -0.6255,0.25756 -0.16558,0.165583 -0.25143,0.374083 -0.25756,0.625502 0.006,0.251436 0.092,0.459936 0.25756,0.625503 0.16557,0.165581 0.37407,0.251435 0.6255,0.25756 z" style="font-size:19.62386322px;font-variant:normal;font-weight:bold;font-stretch:normal;font-family:Miso;-inkscape-font-specification:Miso Bold" id="path3005"/><path d="m 192.83447,84.521917 3.92472,0 c 0.27105,-0.0061 0.49426,-0.09689 0.66966,-0.272278 0.17538,-0.175385 0.26614,-0.398604 0.27227,-0.669655 -0.006,-0.271051 -0.0969,-0.494269 -0.27227,-0.669656 -0.17539,-0.175385 -0.39861,-0.266144 -0.66966,-0.272278 l -2.98279,0 0,-10.361266 c -0.006,-0.271039 -0.0969,-0.494257 -0.27227,-0.669656 -0.17539,-0.175373 -0.39861,-0.266132 -0.66966,-0.272277 -0.27105,0.0061 -0.49427,0.0969 -0.66966,0.272277 -0.17538,0.175399 -0.26614,0.398617 -0.27227,0.669656 l 0,11.3032 c 0.006,0.271051 0.0969,0.494269 0.27227,0.669655 0.17539,0.175386 0.39861,0.266145 0.66966,0.272278 z" style="font-size:19.62386322px;font-variant:normal;font-weight:bold;font-stretch:normal;font-family:Miso;-inkscape-font-specification:Miso Bold" id="path3007"/><path d="m 201.91354,78.772199 -1.0793,0 c -0.80538,0.02045 -1.47586,0.298447 -2.01142,0.834003 -0.53556,0.535565 -0.81356,1.206038 -0.834,2.011421 0.0204,0.805387 0.29844,1.47586 0.834,2.011419 0.53556,0.535561 1.20603,0.813562 2.01142,0.834004 l 1.96236,0 c 0.25143,-0.0061 0.45993,-0.09199 0.62551,-0.25756 0.16557,-0.165574 0.25142,-0.374075 0.25756,-0.625502 l 0,-5.847836 c -0.005,-0.586249 -0.16149,-1.106274 -0.46852,-1.560078 -0.30703,-0.453787 -0.73303,-0.7972 -1.27798,-1.030239 -0.53148,-0.222392 -1.06786,-0.277992 -1.60914,-0.166801 -0.54129,0.11121 -1.01879,0.369587 -1.43252,0.775133 -0.17989,0.179891 -0.27147,0.389209 -0.27473,0.627956 0.003,0.238761 0.0948,0.44808 0.27473,0.627955 0.17334,0.173349 0.37611,0.258384 0.60833,0.255107 0.12673,4.16e-4 0.2412,-0.02003 0.34341,-0.06132 0.10221,-0.04128 0.19705,-0.105879 0.28454,-0.193783 0.15168,-0.156981 0.3291,-0.255099 0.53229,-0.294354 0.20319,-0.03924 0.40515,-0.01962 0.60588,0.05887 0.19869,0.083 0.35568,0.21137 0.47097,0.385114 0.11528,0.173757 0.17415,0.365905 0.17661,0.576443 z m -1.0793,1.766125 1.0793,0 0,2.158597 -1.0793,0 c -0.31112,-0.0069 -0.56704,-0.11079 -0.76777,-0.311525 -0.20074,-0.200731 -0.30458,-0.456655 -0.31153,-0.767773 0.007,-0.311114 0.11079,-0.567038 0.31153,-0.767774 0.20073,-0.20073 0.45665,-0.304572 0.76777,-0.311525 z" style="font-size:19.62386322px;font-variant:normal;font-weight:bold;font-stretch:normal;font-family:Miso;-inkscape-font-specification:Miso Bold" id="path3009"/><path d="m 206.55584,84.463046 1.96237,0 c 0.80538,-0.02044 1.47585,-0.298442 2.01141,-0.834004 0.53556,-0.53556 0.81356,-1.206032 0.83401,-2.011419 l 0,-3.767734 c -0.0205,-0.805378 -0.29845,-1.475851 -0.83401,-2.01142 -0.53556,-0.535552 -1.20603,-0.813553 -2.01141,-0.834003 l -1.0793,0 0,-3.120154 c -0.006,-0.251415 -0.092,-0.459916 -0.25756,-0.625503 -0.16558,-0.165561 -0.37408,-0.251414 -0.62551,-0.25756 -0.25143,0.0061 -0.45993,0.092 -0.6255,0.25756 -0.16557,0.165587 -0.25143,0.374088 -0.25756,0.625503 l 0,11.695672 c 0.006,0.251428 0.092,0.459928 0.25756,0.625502 0.16557,0.165574 0.37407,0.251427 0.6255,0.25756 z m 0.88307,-7.692455 1.0793,0 c 0.31111,0.007 0.56703,0.110799 0.76777,0.311525 0.20073,0.20074 0.30457,0.456664 0.31152,0.767773 l 0,3.767734 c -0.007,0.311118 -0.11079,0.567042 -0.31152,0.767773 -0.20074,0.200735 -0.45666,0.304576 -0.76777,0.311525 l -1.0793,0 z" style="font-size:19.62386322px;font-variant:normal;font-weight:bold;font-stretch:normal;font-family:Miso;-inkscape-font-specification:Miso Bold" id="path3011"/><path d="m 215.90996,84.541541 c 0.80539,-0.02044 1.47586,-0.298443 2.01142,-0.834004 0.53556,-0.53556 0.81356,-1.206033 0.83401,-2.01142 l 0,-3.924722 c -0.0205,-0.805379 -0.29845,-1.475851 -0.83401,-2.01142 -0.53556,-0.535553 -1.20603,-0.813554 -2.01142,-0.834004 -0.80538,0.02045 -1.47586,0.298452 -2.01142,0.834004 -0.53556,0.535568 -0.81356,1.206041 -0.834,2.01142 l 0,3.924722 c 0.0204,0.805387 0.29844,1.47586 0.834,2.01142 0.53556,0.535561 1.20604,0.813562 2.01142,0.834004 z m 0,-7.849445 c 0.31112,0.007 0.56704,0.1108 0.76778,0.311525 0.20073,0.20074 0.30457,0.456665 0.31152,0.767774 l 0,3.924722 c -0.007,0.311118 -0.11079,0.567042 -0.31152,0.767774 -0.20074,0.200734 -0.45666,0.304576 -0.76778,0.311525 -0.31111,-0.0069 -0.56704,-0.11079 -0.76777,-0.311525 -0.20074,-0.200731 -0.30458,-0.456656 -0.31152,-0.767774 l 0,-3.924722 c 0.007,-0.311109 0.11079,-0.567034 0.31152,-0.767774 0.20073,-0.200726 0.45666,-0.304567 0.76777,-0.311525 z" style="font-size:19.62386322px;font-variant:normal;font-weight:bold;font-stretch:normal;font-family:Miso;-inkscape-font-specification:Miso Bold" id="path3013"/><path d="m 221.58036,84.541541 c 0.25143,-0.0061 0.45993,-0.09199 0.62551,-0.257561 0.16557,-0.165574 0.25142,-0.374075 0.25756,-0.625502 l 0,-6.887887 1.0793,0 c 0.1766,-0.0033 0.35322,0.04252 0.52983,0.137365 0.23221,0.12429 0.45952,0.155361 0.68192,0.09321 0.2224,-0.06213 0.40065,-0.197864 0.53475,-0.40719 0.11732,-0.232205 0.14758,-0.459512 0.0908,-0.681921 -0.0568,-0.222392 -0.19829,-0.400639 -0.42436,-0.534743 -0.45135,-0.251827 -0.92232,-0.37611 -1.4129,-0.372848 l -1.96237,0 c -0.25142,0.0061 -0.45993,0.092 -0.6255,0.25756 -0.16557,0.165583 -0.25143,0.374083 -0.25756,0.625502 l 0,7.77095 c 0.006,0.251428 0.092,0.459928 0.25756,0.625502 0.16558,0.165574 0.37408,0.251428 0.6255,0.257561 z" style="font-size:19.62386322px;font-variant:normal;font-weight:bold;font-stretch:normal;font-family:Miso;-inkscape-font-specification:Miso Bold" id="path3015"/></g><path d="M 133.74414 3.1992188 C 132.67278 3.1702656 131.57323 3.3072344 130.45898 3.6152344 C 127.81598 4.3462344 125.28275 7.5511094 122.71875 13.412109 C 121.19375 16.896109 120.42817 21.174297 119.82617 25.279297 C 118.69717 32.986297 119.89989 41.516781 123.21289 49.300781 C 124.50389 52.334781 126.45752 55.054437 128.60352 57.398438 C 127.81052 58.736437 127.04755 60.032172 126.31055 61.326172 C 125.44155 62.850172 124.46263 64.327812 123.51562 65.757812 C 122.44262 67.378812 121.34242 69.038172 120.35742 70.826172 C 118.66042 69.357172 116.82322 68.278219 114.07422 67.574219 C 115.00122 65.460219 115.80245 63.131469 116.31445 60.105469 C 117.16545 55.086469 117.38013 47.995891 113.57812 42.712891 C 110.60412 38.579891 104.57816 36.539016 100.16016 36.666016 C 94.960156 36.812016 91.723672 37.724938 87.013672 39.210938 C 85.045672 39.831938 83.381469 40.497563 81.855469 41.476562 C 79.801469 39.303562 77.178203 37.323594 75.408203 36.433594 C 70.161203 33.794594 60.530469 34.025391 55.980469 38.275391 C 54.940469 39.246391 54.108734 40.334719 53.302734 41.386719 C 52.889734 41.925719 52.500797 42.434969 52.091797 42.917969 C 51.804797 43.257969 51.511703 43.594641 51.220703 43.931641 C 50.179703 45.135641 49.104734 46.380156 48.177734 47.785156 C 46.709734 50.009156 45.142906 52.234719 43.628906 54.386719 L 42.882812 55.449219 C 42.550813 55.922219 42.221578 56.398 41.892578 56.875 C 40.560578 58.809 39.303156 60.635281 37.785156 62.238281 C 36.933156 63.137281 35.727875 63.805828 34.296875 64.173828 C 31.227875 64.961828 27.85975 64.477344 24.96875 63.902344 C 24.019324 63.713371 22.984178 63.464789 21.884766 63.183594 L 22.244141 62.294922 L 21.173828 61.861328 L 21.066406 62.126953 L 21.060547 62.142578 L 12.5 54.945312 L 12.910156 53.931641 L 8.6210938 52.199219 L 7.7792969 54.285156 L 4.5585938 52.984375 L 4.0605469 54.220703 L 7.2792969 55.521484 L 4.8085938 61.638672 L 1.5878906 60.337891 L 1.0898438 61.572266 L 4.3085938 62.873047 L 3.2871094 65.402344 L 7.5742188 67.136719 L 7.984375 66.121094 L 19.138672 66.900391 L 19.029297 67.169922 L 20.099609 67.603516 L 20.441406 66.757812 C 21.803996 67.11551 23.066096 67.423432 24.222656 67.654297 C 27.341656 68.275297 31.413094 68.862906 35.246094 67.878906 C 37.374094 67.331906 39.213547 66.291141 40.560547 64.869141 C 42.282547 63.051141 43.685016 61.014922 45.041016 59.044922 C 45.363016 58.578922 45.683766 58.112437 46.009766 57.648438 L 46.755859 56.587891 C 48.285859 54.413891 49.867188 52.163578 51.367188 49.892578 C 52.158188 48.693578 53.108281 47.596594 54.113281 46.433594 C 54.413281 46.085594 54.715719 45.737719 55.011719 45.386719 C 55.479719 44.833719 55.915891 44.263891 56.337891 43.712891 C 57.080891 42.741891 57.782844 41.824312 58.589844 41.070312 C 61.892844 37.985312 69.653453 37.821562 73.689453 39.851562 C 75.090453 40.556563 77.268594 42.228406 78.933594 43.941406 C 78.348594 44.569406 77.768641 45.281656 77.181641 46.097656 C 74.743641 49.487656 74.240656 50.242797 72.847656 53.966797 C 71.710656 57.006797 71.260953 59.191453 71.126953 62.314453 C 71.124953 62.370453 70.898953 67.981781 72.251953 70.675781 C 73.442953 73.051781 75.831172 74.294922 77.576172 74.294922 C 80.807172 74.294922 83.214375 72.355203 84.734375 68.533203 C 85.627375 66.286203 86.672219 63.286 86.824219 60 C 87.013219 55.92 86.533281 49.932375 84.613281 45.359375 C 84.498281 45.086375 84.359219 44.809344 84.199219 44.527344 C 85.342219 43.837344 86.612062 43.347422 88.164062 42.857422 C 92.542062 41.476422 95.470531 40.621328 100.26953 40.486328 C 103.59953 40.391328 108.30256 41.922359 110.47656 44.943359 C 113.50656 49.154359 113.27587 55.166797 112.54688 59.466797 C 112.03187 62.510797 111.19164 64.744344 110.18164 66.902344 C 107.93564 66.689344 106.33319 66.926187 103.99219 67.742188 C 102.10619 68.399188 100.17759 69.210188 97.308594 71.867188 L 97.244141 71.925781 C 92.586141 76.203781 93.684906 79.495172 94.753906 81.076172 C 95.563906 82.274172 96.803797 83.031625 98.341797 83.265625 C 100.7638 83.634625 103.55841 82.603484 105.06641 81.396484 C 108.52241 78.631484 110.07958 75.777359 111.26758 73.318359 C 111.61558 72.597359 111.97336 71.893891 112.31836 71.212891 C 112.33636 71.176891 112.35505 71.141469 112.37305 71.105469 C 115.60505 71.795469 117.11761 72.965484 118.59961 74.396484 C 118.15761 75.249484 117.65295 76.072688 117.12695 76.929688 C 116.73495 77.569688 116.32764 78.230641 115.93164 78.931641 C 115.20564 80.215641 114.47748 81.397063 113.77148 82.539062 C 112.64548 84.362062 111.58027 86.085844 110.69727 87.964844 C 109.48427 90.546844 106.26309 97.399375 108.37109 102.85938 C 110.28709 107.81838 113.4548 111.15516 116.8418 111.78516 C 117.3458 111.87916 117.84008 111.92578 118.33008 111.92578 C 122.20608 111.92578 125.60819 109.03855 127.61719 103.93555 C 129.71619 98.604547 130.37559 90.716734 129.18359 85.177734 C 128.47559 81.889734 127.89617 80.715641 126.32617 77.806641 C 125.51217 76.297641 124.39917 74.911094 123.20117 73.621094 C 124.21217 71.628094 125.42912 69.792141 126.70312 67.869141 C 127.68512 66.387141 128.70081 64.855703 129.63281 63.220703 C 130.20581 62.217703 130.79334 61.207781 131.40234 60.175781 C 134.48834 62.971781 137.55842 64.993078 139.35742 66.080078 C 144.26242 69.044078 155.07681 68.325969 159.25781 67.542969 C 163.96381 66.659969 172.96856 63.898453 176.35156 62.564453 C 176.91256 62.344453 177.45056 62.124203 177.97656 61.908203 C 180.97256 60.686203 183.34066 59.719891 187.34766 59.462891 C 192.54266 59.131891 194.32022 60.609422 196.57422 62.482422 C 196.74622 62.625422 196.9207 62.768109 197.0957 62.912109 C 198.6767 64.210109 205.65998 68.426812 210.08398 67.257812 C 213.09898 66.460813 215.63108 64.309562 218.08008 62.226562 C 221.33208 59.463563 223.45166 57.833 225.47266 58.5 L 226.66992 54.869141 C 222.46592 53.479141 218.97847 56.4455 215.60547 59.3125 C 213.47947 61.1185 211.28442 62.985547 209.10742 63.560547 C 206.84042 64.158547 201.45753 61.544078 199.51953 59.955078 C 199.35153 59.817078 199.18553 59.680969 199.01953 59.542969 C 196.58153 57.515969 193.81452 55.218438 187.10352 55.648438 C 182.47352 55.945437 179.5892 57.122141 176.5332 58.369141 C 176.0202 58.579141 175.49522 58.792812 174.94922 59.007812 C 171.77422 60.259813 162.98469 62.953203 158.55469 63.783203 C 153.58269 64.715203 144.62494 64.794594 141.33594 62.808594 C 138.37694 61.020594 135.68539 58.973594 133.40039 56.808594 C 135.97939 52.460594 138.57752 47.999344 140.47852 43.652344 C 141.85352 40.509344 143.80503 30.879672 144.20703 27.763672 C 145.11903 20.707672 145.72845 12.066984 142.31445 7.8339844 C 139.92345 4.8692344 136.95822 3.2860781 133.74414 3.1992188 z M 133.51367 7.0097656 C 135.68067 7.0097656 137.6018 8.0754219 139.3418 10.232422 C 141.2178 12.558422 141.57897 18.291484 140.41797 27.271484 C 140.01797 30.366484 138.09256 39.565188 136.97656 42.117188 C 135.29756 45.956188 132.99906 49.978687 130.66406 53.929688 C 128.93606 51.898688 127.59238 49.821688 126.73438 47.804688 C 123.69337 40.658687 122.58528 32.854984 123.61328 25.833984 C 124.17428 21.991984 124.88061 18.013359 126.22461 14.943359 C 129.15761 8.2393594 131.11847 7.4007812 131.48047 7.3007812 C 132.18147 7.1067813 132.85867 7.0097656 133.51367 7.0097656 z M 81.208984 47.140625 C 82.781984 51.101625 83.162906 56.412312 83.003906 59.820312 C 82.877906 62.539313 81.964641 65.150141 81.181641 67.119141 C 80.001641 70.089141 78.635172 70.470703 77.576172 70.470703 C 77.259172 70.470703 76.193922 70.005938 75.669922 68.960938 C 75.075922 67.776937 74.865266 64.375516 74.947266 62.478516 C 75.065266 59.735516 75.425687 57.992641 76.429688 55.306641 C 77.687688 51.943641 78.032156 51.462078 80.285156 48.330078 C 80.596156 47.897078 80.903984 47.502625 81.208984 47.140625 z M 108.3125 70.666016 C 108.1505 70.990016 107.98822 71.319297 107.82422 71.654297 C 106.77222 73.830297 105.50778 76.144156 102.67578 78.410156 C 101.84178 79.078156 100.13202 79.671375 98.916016 79.484375 C 98.293016 79.389375 98.048922 79.125547 97.919922 78.935547 C 97.079922 77.691547 98.495078 75.969188 99.830078 74.742188 L 99.90625 74.673828 C 102.24125 72.510828 103.65095 71.911516 105.25195 71.353516 C 106.45895 70.932516 107.3505 70.716016 108.3125 70.666016 z M 121.36133 77.308594 C 121.97533 78.046594 122.53084 78.820047 122.96484 79.623047 C 124.43384 82.346047 124.84327 83.174422 125.44727 85.982422 C 126.48127 90.787422 125.88555 97.903156 124.06055 102.53516 C 123.48255 104.00016 121.30806 108.72439 117.53906 108.02539 C 115.55806 107.65739 113.30945 105.02842 111.93945 101.48242 C 110.41945 97.547422 113.1362 91.767797 114.1582 89.591797 C 114.9482 87.908797 115.95644 86.279781 117.02344 84.550781 C 117.74844 83.376781 118.49872 82.1635 119.26172 80.8125 C 119.62172 80.1735 120.00977 79.541641 120.38477 78.931641 C 120.71077 78.401641 121.04033 77.865594 121.36133 77.308594 z " id="Kabel"/></svg>